<svg width="56" height="24" viewBox="0 0 56 24" fill="none" xmlns="http://www.w3.org/2000/svg">
<path d="M11.0947 3.60821C11.7411 2.79968 12.1797 1.71417 12.0641 0.604858C11.1179 0.651933 9.96319 1.22916 9.29471 2.03823C8.69442 2.73116 8.1632 3.86213 8.30174 4.92491C9.36376 5.01702 10.425 4.394 11.0947 3.60821ZM12.052 5.1324C10.5094 5.0405 9.19788 6.00784 8.46119 6.00784C7.72419 6.00784 6.59611 5.17872 5.37603 5.20103C3.78803 5.22441 2.31456 6.12226 1.50871 7.55026C-0.148773 10.407 1.07131 14.6446 2.68311 16.9712C3.4658 18.1222 4.40922 19.3897 5.65215 19.3442C6.82655 19.298 7.2869 18.5837 8.71437 18.5837C10.1409 18.5837 10.5555 19.3442 11.7987 19.3211C13.0879 19.298 13.8939 18.1694 14.6766 17.0172C15.5745 15.705 15.9421 14.4381 15.9652 14.3685C15.942 14.3454 13.4792 13.4006 13.4564 10.5677C13.4331 8.19558 15.39 7.06718 15.4821 6.99727C14.3772 5.36306 12.6505 5.17873 12.052 5.1324ZM25.4833 1.92209C28.836 1.92209 31.1705 4.23315 31.1705 7.59787C31.1705 10.9746 28.7878 13.2977 25.3992 13.2977H21.6872V19.2009H19.0052V1.92209H25.4833ZM21.6871 11.0465H24.7644C27.0995 11.0465 28.4284 9.78926 28.4284 7.60988C28.4284 5.43072 27.0995 4.18533 24.7764 4.18533H21.6871V11.0465ZM31.8713 15.6207C31.8713 13.4173 33.5597 12.0643 36.5535 11.8967L40.0018 11.6932V10.7234C40.0018 9.32238 39.0558 8.48415 37.4756 8.48415C35.9784 8.48415 35.0444 9.20249 34.8172 10.3282H32.3744C32.5181 8.05297 34.4577 6.37661 37.5712 6.37661C40.6245 6.37661 42.5763 7.99313 42.5763 10.5196V19.2009H40.0975V17.1294H40.0379C39.3075 18.5305 37.7148 19.4164 36.0625 19.4164C33.5957 19.4164 31.8713 17.8837 31.8713 15.6207ZM40.0017 14.4832V13.4894L36.9004 13.6809C35.3557 13.7888 34.4816 14.4713 34.4816 15.549C34.4816 16.6505 35.3916 17.3691 36.7807 17.3691C38.5887 17.3688 40.0017 16.1236 40.0017 14.4832ZM44.9163 23.835V21.7395C45.1076 21.7873 45.5385 21.7873 45.7542 21.7873C46.9515 21.7873 47.5982 21.2845 47.9932 19.9913C47.9932 19.9673 48.2209 19.2249 48.2209 19.2129L43.6709 6.60405H46.4725L49.6581 16.854H49.7057L52.8912 6.60405H55.621L50.9028 19.8594C49.8256 22.913 48.5802 23.8949 45.9698 23.8949C45.7542 23.8949 45.1075 23.8708 44.9163 23.835Z" fill="white"/>
</svg>
