<svg width="25" height="19" viewBox="0 0 25 19" fill="none" xmlns="http://www.w3.org/2000/svg">
<path d="M1.68137 18.4998H5.60458V8.97199L0 4.76855V16.8184C0 17.7488 0.753816 18.4998 1.68137 18.4998Z" fill="#4285F4"/>
<path d="M19.0554 18.4998H22.9786C23.909 18.4998 24.66 17.746 24.66 16.8184V4.76855L19.0554 8.97199" fill="#34A853"/>
<path d="M19.0554 1.68614V8.9721L24.66 4.76866V2.52683C24.66 0.447532 22.2865 -0.737837 20.6247 0.509182" fill="#FBBC04"/>
<path d="M5.60449 8.97199V1.68604L12.33 6.73016L19.0555 1.68604V8.97199L12.33 14.0161" fill="#EA4335"/>
<path d="M0 2.52683V4.76866L5.60458 8.9721V1.68614L4.0353 0.509182C2.37074 -0.737837 0 0.447532 0 2.52683Z" fill="#C5221F"/>
</svg>
