<svg width="59" height="23" viewBox="0 0 59 23" fill="none" xmlns="http://www.w3.org/2000/svg">
<path d="M27.4813 17.9673H25.3197V1.22172H31.0501C32.5024 1.22172 33.7408 1.70369 34.754 2.66763C35.7898 3.63156 36.3076 4.80845 36.3076 6.19831C36.3076 7.6218 35.7898 8.79869 34.754 9.75141C33.752 10.7041 32.5136 11.1749 31.0501 11.1749H27.4813V17.9673ZM27.4813 3.28409V9.12373H31.0951C31.9507 9.12373 32.6713 8.83232 33.2342 8.26068C33.8083 7.68905 34.101 6.99411 34.101 6.20952C34.101 5.43613 33.8083 4.75241 33.2342 4.18078C32.6713 3.58673 31.962 3.2953 31.0951 3.2953H27.4813V3.28409Z" fill="white"/>
<path d="M41.959 6.13106C43.5576 6.13106 44.8185 6.55698 45.7417 7.40883C46.6649 8.26068 47.1264 9.42637 47.1264 10.9059V17.9673H45.0662V16.3757H44.9761C44.0867 17.687 42.8934 18.3371 41.4073 18.3371C40.1352 18.3371 39.0769 17.9673 38.2213 17.2163C37.3657 16.4653 36.9379 15.535 36.9379 14.4142C36.9379 13.2261 37.3882 12.2845 38.2888 11.5896C39.1895 10.8835 40.3941 10.536 41.8914 10.536C43.1748 10.536 44.2331 10.7714 45.0549 11.2421V10.749C45.0549 9.998 44.7622 9.37032 44.1656 8.84352C43.5689 8.31672 42.8709 8.05892 42.0716 8.05892C40.8669 8.05892 39.91 8.56331 39.212 9.58328L37.3094 8.39518C38.3564 6.88203 39.91 6.13106 41.959 6.13106ZM39.167 14.4478C39.167 15.0082 39.4034 15.479 39.8875 15.8489C40.3603 16.2187 40.9232 16.4093 41.5649 16.4093C42.4768 16.4093 43.2874 16.073 43.9967 15.4005C44.7059 14.728 45.0662 13.9434 45.0662 13.0355C44.3907 12.5087 43.4563 12.2397 42.2517 12.2397C41.3735 12.2397 40.6418 12.4527 40.0563 12.8674C39.4597 13.3045 39.167 13.8313 39.167 14.4478Z" fill="white"/>
<path d="M58.88 6.50105L51.6748 23H49.4457L52.1251 17.2276L47.3742 6.50105H49.7272L53.1496 14.7281H53.1947L56.5271 6.50105H58.88Z" fill="white"/>
<path d="M18.8833 9.81867C18.8833 9.11702 18.8203 8.44563 18.7032 7.80002H9.64268V11.4988L14.8608 11.5C14.6492 12.7306 13.968 13.7798 12.9244 14.4792V16.8789H16.0305C17.8442 15.2077 18.8833 12.7374 18.8833 9.81867Z" fill="#4285F4"/>
<path d="M12.9255 14.4793C12.0609 15.0599 10.9475 15.3995 9.6449 15.3995C7.12872 15.3995 4.99418 13.7115 4.22976 11.4362H1.02571V13.911C2.6131 17.0472 5.87569 19.1992 9.6449 19.1992C12.25 19.1992 14.4386 18.3462 16.0316 16.8779L12.9255 14.4793Z" fill="#34A853"/>
<path d="M3.92795 9.60008C3.92795 8.9612 4.0349 8.34361 4.22966 7.76301V5.28816H1.02561C0.369264 6.58499 0 8.04882 0 9.60008C0 11.1513 0.37039 12.6152 1.02561 13.912L4.22966 11.4372C4.0349 10.8566 3.92795 10.239 3.92795 9.60008Z" fill="#FABB05"/>
<path d="M9.6449 3.79969C11.0668 3.79969 12.3401 4.28726 13.3454 5.23999L16.098 2.50174C14.4262 0.951605 12.2466 0 9.6449 0C5.87682 0 2.613 2.15202 1.02561 5.28816L4.22966 7.76301C4.99409 5.48768 7.12872 3.79969 9.6449 3.79969Z" fill="#E94235"/>
</svg>
