<svg width="23" height="23" viewBox="0 0 23 23" fill="none" xmlns="http://www.w3.org/2000/svg">
<path d="M8.19323 11.2395C8.19323 9.1959 9.84898 7.53878 11.892 7.53878C13.935 7.53878 15.5917 9.1959 15.5917 11.2395C15.5917 13.2831 13.935 14.9403 11.892 14.9403C9.84898 14.9403 8.19323 13.2831 8.19323 11.2395ZM6.19326 11.2395C6.19326 14.3879 8.74459 16.9399 11.892 16.9399C15.0394 16.9399 17.5908 14.3879 17.5908 11.2395C17.5908 8.09118 15.0394 5.53912 11.892 5.53912C8.74459 5.53912 6.19326 8.09118 6.19326 11.2395ZM16.4846 5.31309C16.4845 5.57657 16.5625 5.83416 16.7087 6.05329C16.855 6.27242 17.0629 6.44325 17.3062 6.54418C17.5495 6.6451 17.8173 6.67159 18.0757 6.62029C18.334 6.56899 18.5714 6.44221 18.7577 6.25598C18.944 6.06975 19.071 5.83243 19.1225 5.57404C19.1739 5.31565 19.1477 5.04778 19.047 4.80432C18.9463 4.56086 18.7757 4.35274 18.5567 4.20627C18.3378 4.0598 18.0803 3.98157 17.8169 3.98147H17.8164C17.4633 3.98163 17.1247 4.12196 16.875 4.37164C16.6253 4.62132 16.4849 4.95993 16.4846 5.31309V5.31309ZM7.40837 20.2757C6.32635 20.2265 5.73823 20.0462 5.3474 19.8939C4.82925 19.6921 4.45955 19.4518 4.07085 19.0635C3.68215 18.6752 3.44154 18.3057 3.24071 17.7874C3.08836 17.3967 2.90812 16.8082 2.85894 15.7259C2.80513 14.5557 2.79439 14.2042 2.79439 11.2396C2.79439 8.27502 2.80602 7.92448 2.85894 6.75334C2.90821 5.671 3.08978 5.0837 3.24071 4.69177C3.44243 4.17347 3.68268 3.80367 4.07085 3.41485C4.45902 3.02604 4.82837 2.78536 5.3474 2.58447C5.73806 2.43207 6.32635 2.25179 7.40837 2.20259C8.5782 2.14877 8.92961 2.13802 11.892 2.13802C14.8544 2.13802 15.2062 2.14966 16.377 2.20259C17.459 2.25188 18.0462 2.4335 18.438 2.58447C18.9561 2.78536 19.3258 3.02657 19.7145 3.41485C20.1032 3.80313 20.3429 4.17347 20.5447 4.69177C20.697 5.08254 20.8772 5.671 20.9264 6.75334C20.9802 7.92448 20.991 8.27502 20.991 11.2396C20.991 14.2042 20.9802 14.5547 20.9264 15.7259C20.8772 16.8082 20.696 17.3965 20.5447 17.7874C20.3429 18.3057 20.1027 18.6755 19.7145 19.0635C19.3263 19.4514 18.9561 19.6921 18.438 19.8939C18.0473 20.0463 17.459 20.2265 16.377 20.2757C15.2072 20.3296 14.8557 20.3403 11.892 20.3403C8.92828 20.3403 8.57785 20.3296 7.40837 20.2757V20.2757ZM7.31648 0.205413C6.13502 0.259233 5.32769 0.446623 4.62265 0.721048C3.89248 1.00444 3.27436 1.38464 2.65668 2.00152C2.03901 2.6184 1.65989 3.23768 1.37658 3.96806C1.10223 4.67375 0.914898 5.48086 0.861095 6.66266C0.806403 7.84633 0.793884 8.22475 0.793884 11.2395C0.793884 14.2543 0.806403 14.6327 0.861095 15.8164C0.914898 16.9983 1.10223 17.8053 1.37658 18.511C1.65989 19.2409 2.03909 19.8609 2.65668 20.4775C3.27427 21.0941 3.89248 21.4738 4.62265 21.758C5.32902 22.0324 6.13502 22.2198 7.31648 22.2736C8.50043 22.3274 8.87812 22.3409 11.892 22.3409C14.9059 22.3409 15.2842 22.3283 16.4676 22.2736C17.6491 22.2198 18.4559 22.0324 19.1614 21.758C19.8911 21.4738 20.5097 21.0944 21.1273 20.4775C21.745 19.8606 22.1233 19.2409 22.4075 18.511C22.6818 17.8053 22.87 16.9982 22.9229 15.8164C22.9767 14.6318 22.9893 14.2543 22.9893 11.2395C22.9893 8.22475 22.9767 7.84633 22.9229 6.66266C22.8691 5.48077 22.6818 4.6733 22.4075 3.96806C22.1233 3.23812 21.744 2.61938 21.1273 2.00152C20.5106 1.38366 19.8911 1.00444 19.1623 0.721048C18.4559 0.446623 17.649 0.258344 16.4684 0.205413C15.2851 0.151594 14.9068 0.138184 11.8929 0.138184C8.87901 0.138184 8.50043 0.150706 7.31648 0.205413Z" fill="white"/>
</svg>
