<svg width="20" height="19" viewBox="0 0 20 19" fill="none" xmlns="http://www.w3.org/2000/svg">
<path d="M4.99327 18.1729V6.18835H1.01334V18.1729H4.99368H4.99327ZM3.00413 4.55235C4.39173 4.55235 5.2556 3.63208 5.2556 2.482C5.22962 1.30572 4.39173 0.411133 3.03052 0.411133C1.66838 0.411133 0.778748 1.30572 0.778748 2.48189C0.778748 3.63197 1.64231 4.55224 2.97806 4.55224H3.00382L3.00413 4.55235ZM7.19621 18.1729H11.1758V11.4809C11.1758 11.1232 11.2018 10.7645 11.3069 10.509C11.5945 9.7931 12.2494 9.052 13.3491 9.052C14.7888 9.052 15.3651 10.1509 15.3651 11.7622V18.1729H19.3446V11.3013C19.3446 7.62033 17.3815 5.90738 14.763 5.90738C12.6163 5.90738 11.6735 7.1083 11.1496 7.92625H11.1761V6.18876H7.19642C7.24837 7.31305 7.19611 18.1733 7.19611 18.1733L7.19621 18.1729Z" fill="white"/>
</svg>
