<svg width="23" height="23" viewBox="0 0 23 23" fill="none" xmlns="http://www.w3.org/2000/svg">
<path d="M20.0384 16.7499H17.2884C17.1669 16.7499 17.0503 16.7016 16.9643 16.6156C16.8784 16.5297 16.8301 16.4131 16.8301 16.2915C16.8301 16.17 16.8784 16.0534 16.9643 15.9675C17.0503 15.8815 17.1669 15.8332 17.2884 15.8332H20.0384C20.7965 15.8332 21.4134 15.2163 21.4134 14.4582V8.04154C21.4134 7.28346 20.7965 6.66654 20.0384 6.66654H2.62174C1.86366 6.66654 1.24674 7.28346 1.24674 8.04154V14.4582C1.24674 15.2163 1.86366 15.8332 2.62174 15.8332H5.37175C5.4933 15.8332 5.60988 15.8815 5.69584 15.9675C5.78179 16.0534 5.83008 16.17 5.83008 16.2915C5.83008 16.4131 5.78179 16.5297 5.69584 16.6156C5.60988 16.7016 5.4933 16.7499 5.37175 16.7499H2.62174C2.01418 16.7492 1.43171 16.5075 1.0021 16.0779C0.572482 15.6482 0.330806 15.0658 0.330078 14.4582V8.04154C0.330078 6.77838 1.35766 5.74988 2.62174 5.74988H20.0384C21.3025 5.74988 22.3301 6.77838 22.3301 8.04154V14.4582C22.3301 15.7214 21.3025 16.7499 20.0384 16.7499ZM13.6217 19.4999H8.12175C8.00019 19.4999 7.88361 19.4516 7.79765 19.3656C7.7117 19.2797 7.66341 19.1631 7.66341 19.0415C7.66341 18.92 7.7117 18.8034 7.79765 18.7175C7.88361 18.6315 8.00019 18.5832 8.12175 18.5832H13.6217C13.7433 18.5832 13.8599 18.6315 13.9458 18.7175C14.0318 18.8034 14.0801 18.92 14.0801 19.0415C14.0801 19.1631 14.0318 19.2797 13.9458 19.3656C13.8599 19.4516 13.7433 19.4999 13.6217 19.4999ZM13.6217 17.6665H8.12175C8.00019 17.6665 7.88361 17.6183 7.79765 17.5323C7.7117 17.4463 7.66341 17.3298 7.66341 17.2082C7.66341 17.0867 7.7117 16.9701 7.79765 16.8841C7.88361 16.7982 8.00019 16.7499 8.12175 16.7499H13.6217C13.7433 16.7499 13.8599 16.7982 13.9458 16.8841C14.0318 16.9701 14.0801 17.0867 14.0801 17.2082C14.0801 17.3298 14.0318 17.4463 13.9458 17.5323C13.8599 17.6183 13.7433 17.6665 13.6217 17.6665Z" fill="black"/>
<path d="M9.95524 15.8332H8.12191C8.00035 15.8332 7.88377 15.7849 7.79782 15.699C7.71186 15.613 7.66357 15.4964 7.66357 15.3749C7.66357 15.2533 7.71186 15.1367 7.79782 15.0508C7.88377 14.9648 8.00035 14.9165 8.12191 14.9165H9.95524C10.0768 14.9165 10.1934 14.9648 10.2793 15.0508C10.3653 15.1367 10.4136 15.2533 10.4136 15.3749C10.4136 15.4964 10.3653 15.613 10.2793 15.699C10.1934 15.7849 10.0768 15.8332 9.95524 15.8332ZM17.2886 6.66654C17.167 6.66654 17.0504 6.61826 16.9645 6.5323C16.8785 6.44635 16.8302 6.32977 16.8302 6.20821V2.54154C16.8302 1.78346 16.2133 1.16654 15.4552 1.16654H7.20524C6.44716 1.16654 5.83024 1.78346 5.83024 2.54154V6.20821C5.83024 6.32977 5.78195 6.44635 5.696 6.5323C5.61004 6.61826 5.49347 6.66654 5.37191 6.66654C5.25035 6.66654 5.13377 6.61826 5.04782 6.5323C4.96186 6.44635 4.91357 6.32977 4.91357 6.20821V2.54154C4.91357 1.27838 5.94116 0.249878 7.20524 0.249878H15.4552C16.7193 0.249878 17.7469 1.27838 17.7469 2.54154V6.20821C17.7469 6.32977 17.6986 6.44635 17.6127 6.5323C17.5267 6.61826 17.4101 6.66654 17.2886 6.66654Z" fill="black"/>
<path d="M15.4552 22.2499H7.20524C6.59768 22.2492 6.0152 22.0075 5.58559 21.5779C5.15598 21.1483 4.9143 20.5658 4.91357 19.9582V12.6249C4.91357 12.5033 4.96186 12.3868 5.04782 12.3008C5.13377 12.2149 5.25035 12.1666 5.37191 12.1666H17.2886C17.4101 12.1666 17.5267 12.2149 17.6127 12.3008C17.6986 12.3868 17.7469 12.5033 17.7469 12.6249V19.9582C17.7469 21.2214 16.7193 22.2499 15.4552 22.2499ZM5.83024 13.0832V19.9582C5.83024 20.7163 6.44716 21.3332 7.20524 21.3332H15.4552C16.2133 21.3332 16.8302 20.7163 16.8302 19.9582V13.0832H5.83024Z" fill="black"/>
</svg>
