<svg width="27" height="19" viewBox="0 0 27 19" fill="none" xmlns="http://www.w3.org/2000/svg">
<path d="M25.6475 3.08091C25.3579 1.99193 24.501 1.13284 23.4108 0.838416C21.4395 0.310059 13.5303 0.310059 13.5303 0.310059C13.5303 0.310059 5.62508 0.310059 3.64979 0.838416C2.56358 1.12881 1.70668 1.9879 1.413 3.08091C0.885986 5.05721 0.885986 9.18324 0.885986 9.18324C0.885986 9.18324 0.885986 13.3093 1.413 15.2856C1.70266 16.3745 2.55955 17.2336 3.64979 17.5281C5.62508 18.0564 13.5303 18.0564 13.5303 18.0564C13.5303 18.0564 21.4395 18.0564 23.4108 17.5281C24.497 17.2377 25.3539 16.3786 25.6475 15.2856C26.1746 13.3093 26.1746 9.18324 26.1746 9.18324C26.1746 9.18324 26.1746 5.05721 25.6475 3.08091Z" fill="white"/>
<path d="M11.0038 12.9866L17.5734 9.18324L11.0038 5.37987V12.9866Z" fill="black"/>
</svg>
