<svg width="21" height="21" viewBox="0 0 21 21" fill="none" xmlns="http://www.w3.org/2000/svg">
<path d="M7 5.03125C6.64125 5.03125 6.34375 4.73375 6.34375 4.375V1.75C6.34375 1.39125 6.64125 1.09375 7 1.09375C7.35875 1.09375 7.65625 1.39125 7.65625 1.75V4.375C7.65625 4.73375 7.35875 5.03125 7 5.03125Z" fill="white"/>
<path d="M14 5.03125C13.6413 5.03125 13.3438 4.73375 13.3438 4.375V1.75C13.3438 1.39125 13.6413 1.09375 14 1.09375C14.3587 1.09375 14.6562 1.39125 14.6562 1.75V4.375C14.6562 4.73375 14.3587 5.03125 14 5.03125Z" fill="white"/>
<path d="M7.4375 12.6875C7.32375 12.6875 7.21 12.6613 7.105 12.6175C6.99125 12.5738 6.90375 12.5125 6.81625 12.4338C6.65875 12.2675 6.5625 12.0488 6.5625 11.8125C6.5625 11.6988 6.58875 11.585 6.6325 11.48C6.67625 11.375 6.7375 11.2788 6.81625 11.1913C6.90375 11.1125 6.99125 11.0513 7.105 11.0075C7.42 10.8763 7.81375 10.9463 8.05875 11.1913C8.21625 11.3575 8.3125 11.585 8.3125 11.8125C8.3125 11.865 8.30375 11.9263 8.295 11.9875C8.28625 12.04 8.26875 12.0925 8.2425 12.145C8.225 12.1975 8.19875 12.25 8.16375 12.3025C8.1375 12.3463 8.09375 12.39 8.05875 12.4338C7.8925 12.5913 7.665 12.6875 7.4375 12.6875Z" fill="white"/>
<path d="M10.5 12.6874C10.3863 12.6874 10.2725 12.6612 10.1675 12.6174C10.0537 12.5737 9.96625 12.5124 9.87875 12.4336C9.72125 12.2674 9.625 12.0486 9.625 11.8124C9.625 11.6986 9.65125 11.5849 9.695 11.4799C9.73875 11.3749 9.8 11.2786 9.87875 11.1911C9.96625 11.1124 10.0537 11.0511 10.1675 11.0074C10.4825 10.8674 10.8762 10.9461 11.1212 11.1911C11.2787 11.3574 11.375 11.5849 11.375 11.8124C11.375 11.8649 11.3662 11.9261 11.3575 11.9874C11.3487 12.0399 11.3312 12.0924 11.305 12.1449C11.2875 12.1974 11.2613 12.2499 11.2263 12.3024C11.2 12.3461 11.1562 12.3899 11.1212 12.4336C10.955 12.5911 10.7275 12.6874 10.5 12.6874Z" fill="white"/>
<path d="M13.5625 12.6874C13.4488 12.6874 13.335 12.6612 13.23 12.6174C13.1162 12.5737 13.0288 12.5124 12.9413 12.4336C12.9063 12.3899 12.8712 12.3461 12.8362 12.3024C12.8012 12.2499 12.775 12.1974 12.7575 12.1449C12.7313 12.0924 12.7138 12.0399 12.705 11.9874C12.6963 11.9261 12.6875 11.8649 12.6875 11.8124C12.6875 11.5849 12.7838 11.3574 12.9413 11.1911C13.0288 11.1124 13.1162 11.0511 13.23 11.0074C13.5537 10.8674 13.9387 10.9461 14.1837 11.1911C14.3412 11.3574 14.4375 11.5849 14.4375 11.8124C14.4375 11.8649 14.4287 11.9261 14.42 11.9874C14.4112 12.0399 14.3937 12.0924 14.3675 12.1449C14.35 12.1974 14.3238 12.2499 14.2888 12.3024C14.2625 12.3461 14.2187 12.3899 14.1837 12.4336C14.0175 12.5911 13.79 12.6874 13.5625 12.6874Z" fill="white"/>
<path d="M7.4375 15.7499C7.32375 15.7499 7.21 15.7237 7.105 15.6799C7 15.6362 6.90375 15.5749 6.81625 15.4962C6.65875 15.3299 6.5625 15.1024 6.5625 14.8749C6.5625 14.7612 6.58875 14.6474 6.6325 14.5424C6.67625 14.4287 6.7375 14.3324 6.81625 14.2537C7.14 13.9299 7.735 13.9299 8.05875 14.2537C8.21625 14.4199 8.3125 14.6474 8.3125 14.8749C8.3125 15.1024 8.21625 15.3299 8.05875 15.4962C7.8925 15.6537 7.665 15.7499 7.4375 15.7499Z" fill="white"/>
<path d="M10.5 15.7499C10.2725 15.7499 10.045 15.6537 9.87875 15.4962C9.72125 15.3299 9.625 15.1024 9.625 14.8749C9.625 14.7612 9.65125 14.6474 9.695 14.5424C9.73875 14.4287 9.8 14.3324 9.87875 14.2537C10.2025 13.9299 10.7975 13.9299 11.1212 14.2537C11.2 14.3324 11.2612 14.4287 11.305 14.5424C11.3487 14.6474 11.375 14.7612 11.375 14.8749C11.375 15.1024 11.2787 15.3299 11.1212 15.4962C10.955 15.6537 10.7275 15.7499 10.5 15.7499Z" fill="white"/>
<path d="M13.5625 15.7499C13.335 15.7499 13.1075 15.6537 12.9413 15.4962C12.8625 15.4174 12.8013 15.3212 12.7575 15.2074C12.7138 15.1024 12.6875 14.9887 12.6875 14.8749C12.6875 14.7612 12.7138 14.6474 12.7575 14.5424C12.8013 14.4287 12.8625 14.3324 12.9413 14.2537C13.1425 14.0524 13.4487 13.9562 13.7287 14.0174C13.79 14.0262 13.8425 14.0437 13.895 14.0699C13.9475 14.0874 14 14.1137 14.0525 14.1487C14.0963 14.1749 14.14 14.2187 14.1837 14.2537C14.3412 14.4199 14.4375 14.6474 14.4375 14.8749C14.4375 15.1024 14.3412 15.3299 14.1837 15.4962C14.0175 15.6537 13.79 15.7499 13.5625 15.7499Z" fill="white"/>
<path d="M17.9375 8.60986H3.0625C2.70375 8.60986 2.40625 8.31236 2.40625 7.95361C2.40625 7.59486 2.70375 7.29736 3.0625 7.29736H17.9375C18.2963 7.29736 18.5938 7.59486 18.5938 7.95361C18.5938 8.31236 18.2963 8.60986 17.9375 8.60986Z" fill="white"/>
<path d="M14 19.9062H7C3.80625 19.9062 1.96875 18.0688 1.96875 14.875V7.4375C1.96875 4.24375 3.80625 2.40625 7 2.40625H14C17.1938 2.40625 19.0312 4.24375 19.0312 7.4375V14.875C19.0312 18.0688 17.1938 19.9062 14 19.9062ZM7 3.71875C4.4975 3.71875 3.28125 4.935 3.28125 7.4375V14.875C3.28125 17.3775 4.4975 18.5938 7 18.5938H14C16.5025 18.5938 17.7188 17.3775 17.7188 14.875V7.4375C17.7188 4.935 16.5025 3.71875 14 3.71875H7Z" fill="white"/>
</svg>
