<svg width="50" height="49" viewBox="0 0 50 49" fill="none" xmlns="http://www.w3.org/2000/svg">
<rect x="0.881836" width="48.8818" height="48.8818" rx="4.27093" fill="white" fill-opacity="0.1"/>
<rect x="1.38184" y="0.5" width="47.8818" height="47.8818" rx="3.77093" stroke="white" stroke-opacity="0.2"/>
<path d="M20.9968 24.5578C20.9968 22.1009 22.9893 20.1086 25.4477 20.1086C27.9061 20.1086 29.8996 22.1009 29.8996 24.5578C29.8996 27.0148 27.9061 29.0071 25.4477 29.0071C22.9893 29.0071 20.9968 27.0148 20.9968 24.5578ZM18.5902 24.5578C18.5902 28.343 21.6603 31.4112 25.4477 31.4112C29.2351 31.4112 32.3052 28.343 32.3052 24.5578C32.3052 20.7727 29.2351 17.7045 25.4477 17.7045C21.6603 17.7045 18.5902 20.7727 18.5902 24.5578ZM30.9741 17.4328C30.9739 17.7495 31.0678 18.0592 31.2438 18.3227C31.4198 18.5861 31.67 18.7915 31.9628 18.9128C32.2555 19.0342 32.5778 19.066 32.8886 19.0043C33.1995 18.9427 33.4851 18.7903 33.7094 18.5664C33.9336 18.3425 34.0863 18.0571 34.1483 17.7465C34.2102 17.4358 34.1786 17.1138 34.0574 16.8211C33.9363 16.5284 33.731 16.2782 33.4675 16.1021C33.204 15.926 32.8942 15.8319 32.5773 15.8318H32.5766C32.1518 15.832 31.7444 16.0007 31.4439 16.3009C31.1434 16.6011 30.9744 17.0082 30.9741 17.4328ZM20.0524 35.4217C18.7504 35.3625 18.0427 35.1457 17.5724 34.9626C16.9489 34.72 16.504 34.4311 16.0363 33.9643C15.5685 33.4974 15.279 33.0533 15.0373 32.4301C14.854 31.9603 14.6371 31.2529 14.5779 29.9516C14.5132 28.5448 14.5003 28.1222 14.5003 24.558C14.5003 20.9938 14.5143 20.5723 14.5779 19.1643C14.6372 17.8631 14.8557 17.157 15.0373 16.6858C15.2801 16.0626 15.5692 15.618 16.0363 15.1506C16.5034 14.6831 16.9478 14.3938 17.5724 14.1523C18.0425 13.969 18.7504 13.7523 20.0524 13.6931C21.4601 13.6284 21.883 13.6155 25.4477 13.6155C29.0124 13.6155 29.4357 13.6295 30.8446 13.6931C32.1466 13.7524 32.8531 13.9707 33.3246 14.1523C33.9481 14.3938 34.393 14.6838 34.8607 15.1506C35.3284 15.6174 35.6169 16.0626 35.8596 16.6858C36.043 17.1556 36.2599 17.8631 36.319 19.1643C36.3838 20.5723 36.3967 20.9938 36.3967 24.558C36.3967 28.1222 36.3838 28.5436 36.319 29.9516C36.2597 31.2529 36.0418 31.9601 35.8596 32.4301C35.6169 33.0533 35.3278 33.4979 34.8607 33.9643C34.3936 34.4306 33.9481 34.72 33.3246 34.9626C32.8545 35.1458 32.1466 35.3626 30.8446 35.4217C29.4369 35.4864 29.014 35.4993 25.4477 35.4993C21.8814 35.4993 21.4597 35.4864 20.0524 35.4217ZM19.9418 11.292C18.5201 11.3567 17.5487 11.582 16.7003 11.9119C15.8216 12.2526 15.0778 12.7097 14.3346 13.4514C13.5913 14.193 13.1351 14.9376 12.7942 15.8157C12.4641 16.6641 12.2386 17.6345 12.1739 19.0553C12.1081 20.4784 12.093 20.9333 12.093 24.5578C12.093 28.1824 12.1081 28.6373 12.1739 30.0604C12.2386 31.4813 12.4641 32.4516 12.7942 33.3C13.1351 34.1776 13.5914 34.923 14.3346 35.6643C15.0777 36.4056 15.8216 36.8621 16.7003 37.2038C17.5503 37.5337 18.5201 37.759 19.9418 37.8237C21.3665 37.8884 21.821 37.9045 25.4477 37.9045C29.0744 37.9045 29.5296 37.8895 30.9536 37.8237C32.3753 37.759 33.3462 37.5337 34.1951 37.2038C35.0732 36.8621 35.8175 36.406 36.5608 35.6643C37.3041 34.9227 37.7593 34.1776 38.1012 33.3C38.4313 32.4516 38.6578 31.4812 38.7215 30.0604C38.7862 28.6363 38.8013 28.1824 38.8013 24.5578C38.8013 20.9333 38.7862 20.4784 38.7215 19.0553C38.6567 17.6343 38.4313 16.6636 38.1012 15.8157C37.7593 14.9381 37.3029 14.1942 36.5608 13.4514C35.8187 12.7086 35.0732 12.2526 34.1962 11.9119C33.3462 11.582 32.3752 11.3556 30.9546 11.292C29.5307 11.2273 29.0755 11.2112 25.4488 11.2112C21.8221 11.2112 21.3665 11.2262 19.9418 11.292Z" fill="white"/>
</svg>
