<svg width="50" height="49" viewBox="0 0 50 49" fill="none" xmlns="http://www.w3.org/2000/svg">
<rect x="0.763672" width="48.8818" height="48.8818" rx="4.27093" fill="white" fill-opacity="0.1"/>
<rect x="1.26367" y="0.5" width="47.8818" height="47.8818" rx="3.77093" stroke="white" stroke-opacity="0.2"/>
<path fill-rule="evenodd" clip-rule="evenodd" d="M36.3361 15.2468C37.5373 15.5712 38.4814 16.5177 38.8005 17.7176C39.3812 19.895 39.3812 24.441 39.3812 24.441C39.3812 24.441 39.3812 28.987 38.8005 31.1645C38.4769 32.3688 37.5328 33.3153 36.3361 33.6353C34.1641 34.2174 25.4499 34.2174 25.4499 34.2174C25.4499 34.2174 16.74 34.2174 14.5637 33.6353C13.3625 33.3109 12.4183 32.3643 12.0992 31.1645C11.5186 28.987 11.5186 24.441 11.5186 24.441C11.5186 24.441 11.5186 19.895 12.0992 17.7176C12.4228 16.5133 13.3669 15.5668 14.5637 15.2468C16.74 14.6647 25.4499 14.6647 25.4499 14.6647C25.4499 14.6647 34.1641 14.6647 36.3361 15.2468ZM29.9045 24.441L22.6663 28.6315V20.2505L29.9045 24.441Z" fill="white"/>
</svg>
