<svg width="85" height="85" viewBox="0 0 85 85" fill="none" xmlns="http://www.w3.org/2000/svg">
<g opacity="0.4">
<path d="M42.5457 10.9365C59.9655 10.9365 74.1091 25.0801 74.1091 42.5C74.1091 59.9198 59.9655 74.0634 42.5457 74.0634C25.1258 74.0634 10.9822 59.9198 10.9822 42.5C10.9822 25.0801 25.1258 10.9365 42.5457 10.9365Z" fill="white"/>
</g>
<g opacity="0.4">
<path d="M42.5457 0.836243C65.5399 0.836243 84.2095 19.5058 84.2095 42.5C84.2095 65.4942 65.5399 84.1637 42.5457 84.1637C19.5515 84.1637 0.881958 65.4942 0.881958 42.5C0.881958 19.5058 19.5515 0.836243 42.5457 0.836243Z" fill="white"/>
</g>
<path d="M42.5456 18.5117C55.7847 18.5117 66.5339 29.2608 66.5339 42.4999C66.5339 55.739 55.7847 66.4882 42.5456 66.4882C29.3065 66.4882 18.5574 55.739 18.5574 42.4999C18.5574 29.2608 29.3065 18.5117 42.5456 18.5117Z" fill="white"/>
<path d="M52.3303 42.5L36.5486 33.3883V51.6118L52.3303 42.5Z" fill="black"/>
</svg>
